<svg width="28" height="21" viewBox="0 0 28 21" fill="none" xmlns="http://www.w3.org/2000/svg">
<rect x="9.33333" y="11.6667" width="2.33333" height="2.33333" fill="#FF2B00"/>
<rect x="11.6667" y="11.6667" width="2.33333" height="2.33333" fill="#FF2B00"/>
<rect x="14" y="11.6667" width="2.33333" height="2.33333" fill="#FF2B00"/>
<rect x="14" y="9.33331" width="2.33333" height="2.33333" fill="#FF2B00"/>
<rect x="14" y="7" width="2.33333" height="2.33333" fill="#FF2B00"/>
<rect x="11.6667" y="2.48883" width="2.33333" height="2.33333" fill="#AE0909"/>
<rect x="9.33333" y="0.155518" width="2.33333" height="2.33333" fill="#AE0909"/>
<rect x="7" y="0.155518" width="2.33333" height="2.33333" fill="#AE0909"/>
<rect x="4.66667" y="2.33331" width="2.33333" height="2.33333" fill="#AE0909"/>
<rect x="2.33333" y="4.8222" width="2.33333" height="2.33333" fill="#AE0909"/>
<rect x="2.33333" y="7" width="2.33333" height="2.33333" fill="#AE0909"/>
<rect x="4.66667" y="9.33331" width="2.33333" height="2.33333" fill="#AE0909"/>
<rect x="7" y="11.6667" width="2.33333" height="2.33333" fill="#AE0909"/>
<rect x="9.33333" y="14" width="2.33333" height="2.33333" fill="#AE0909"/>
<rect x="11.6667" y="16.3333" width="2.33333" height="2.33333" fill="#AE0909"/>
<rect x="14" y="18.6667" width="2.33333" height="2.33333" fill="#AE0909"/>
<rect x="16.3333" y="16.3333" width="2.33333" height="2.33333" fill="#AE0909"/>
<rect x="18.6667" y="14" width="2.33333" height="2.33333" fill="#AE0909"/>
<rect x="21" y="11.6667" width="2.33333" height="2.33333" fill="#AE0909"/>
<rect x="23.3333" y="9.33331" width="2.33333" height="2.33333" fill="#AE0909"/>
<rect x="25.6667" y="7" width="2.33333" height="2.33333" fill="#AE0909"/>
<rect x="25.6667" y="4.8222" width="2.33333" height="2.33333" fill="#AE0909"/>
<rect x="23.3333" y="2.33331" width="2.33333" height="2.33333" fill="#AE0909"/>
<rect x="21" width="2.33333" height="2.33333" fill="#AE0909"/>
<rect x="18.6667" width="2.33333" height="2.33333" fill="#AE0909"/>
<rect x="16.3333" y="2.33331" width="2.33333" height="2.33333" fill="#AE0909"/>
<rect x="14" y="4.8222" width="2.33333" height="2.33333" fill="#AE0909"/>
<rect x="9.33333" y="2.48883" width="2.33333" height="2.33333" fill="#FF2B00"/>
<rect x="7" y="2.48883" width="2.33333" height="2.33333" fill="#FF2B00"/>
<rect x="4.66667" y="4.66669" width="2.33333" height="2.33333" fill="#FF2B00"/>
<rect x="9.33333" y="4.66669" width="2.33333" height="2.33333" fill="#FFC2C2"/>
<rect x="7" y="7" width="2.33333" height="2.33333" fill="#FFC2C2"/>
<rect x="7" y="4.66669" width="2.33333" height="2.33333" fill="#FF2B00"/>
<rect x="11.6667" y="4.8222" width="2.33333" height="2.33333" fill="#FF2B00"/>
<rect x="11.6667" y="7" width="2.33333" height="2.33333" fill="#FF2B00"/>
<rect x="11.6667" y="9.33331" width="2.33333" height="2.33333" fill="#FF2B00"/>
<rect x="9.33333" y="9.33331" width="2.33333" height="2.33333" fill="#FF2B00"/>
<rect x="9.33333" y="7" width="2.33333" height="2.33333" fill="#FF2B00"/>
<rect x="7" y="9.33331" width="2.33333" height="2.33333" fill="#FF2B00"/>
<rect x="4.66667" y="7" width="2.33333" height="2.33333" fill="#FF2B00"/>
<rect x="14" y="16.3333" width="2.33333" height="2.33333" fill="#FF2B00"/>
<rect x="16.3333" y="14" width="2.33333" height="2.33333" fill="#FF2B00"/>
<rect x="14" y="14" width="2.33333" height="2.33333" fill="#FF2B00"/>
<rect x="11.6667" y="14" width="2.33333" height="2.33333" fill="#FF2B00"/>
<rect x="18.6667" y="11.6667" width="2.33333" height="2.33333" fill="#FF2B00"/>
<rect x="18.6667" y="9.33331" width="2.33333" height="2.33333" fill="#FF2B00"/>
<rect x="18.6667" y="7" width="2.33333" height="2.33333" fill="#FF2B00"/>
<rect x="16.3333" y="4.66669" width="2.33333" height="2.33333" fill="#FF2B00"/>
<rect x="16.3333" y="7" width="2.33333" height="2.33333" fill="#FF2B00"/>
<rect x="16.3333" y="9.33331" width="2.33333" height="2.33333" fill="#FF2B00"/>
<rect x="16.3333" y="11.6667" width="2.33333" height="2.33333" fill="#FF2B00"/>
<rect x="18.6667" y="4.66669" width="2.33333" height="2.33333" fill="#FF2B00"/>
<rect x="18.6667" y="2.33331" width="2.33333" height="2.33333" fill="#FF2B00"/>
<rect x="21" y="2.33331" width="2.33333" height="2.33333" fill="#FF2B00"/>
<rect x="21" y="4.66669" width="2.33333" height="2.33333" fill="#FF2B00"/>
<rect x="21" y="7" width="2.33333" height="2.33333" fill="#FF2B00"/>
<rect x="21" y="9.33331" width="2.33333" height="2.33333" fill="#FF2B00"/>
<rect x="23.3333" y="4.66669" width="2.33333" height="2.33333" fill="#FF2B00"/>
<rect x="23.3333" y="7" width="2.33333" height="2.33333" fill="#FF2B00"/>
<rect x="11.6667" y="18.6667" width="2.33333" height="2.33333" fill="#FF0000" fill-opacity="0.4"/>
<rect x="9.33333" y="16.3333" width="2.33333" height="2.33333" fill="#FF0000" fill-opacity="0.4"/>
<rect x="14" y="2.48883" width="2.33333" height="2.33333" fill="#FF0000" fill-opacity="0.4"/>
<rect x="7" y="14" width="2.33333" height="2.33333" fill="#FF0000" fill-opacity="0.4"/>
<rect x="4.66667" y="11.6667" width="2.33333" height="2.33333" fill="#FF0000" fill-opacity="0.4"/>
<rect x="2.33333" y="9.33331" width="2.33333" height="2.33333" fill="#FF0000" fill-opacity="0.4"/>
<rect y="7" width="2.33333" height="2.33333" fill="#FF0000" fill-opacity="0.4"/>
<rect y="4.8222" width="2.33333" height="2.33333" fill="#FF0000" fill-opacity="0.4"/>
<rect x="2.33333" y="2.48883" width="2.33333" height="2.33333" fill="#FF0000" fill-opacity="0.4"/>
<rect x="4.66667" y="0.155518" width="2.33333" height="2.33333" fill="#FF0000" fill-opacity="0.4"/>
<rect x="16.3333" width="2.33333" height="2.33333" fill="#FF0000" fill-opacity="0.4"/>
</svg>
